<svg xmlns="http://www.w3.org/2000/svg" viewBox="0 0 120 120" fill="none">
  
  <circle cx="60" cy="60" r="56" fill="#FDFAF5" stroke="#8B1A2B" stroke-width="2"></circle>
  
  <path d="M14 78 L34 56 L46 68 L60 50 L74 66 L88 54 L106 78 Z" fill="#3F5B3D" opacity="0.9"></path>
  
  <path d="M14 86 H106" stroke="#5B7A8C" stroke-width="1.5" stroke-linecap="round" stroke-dasharray="2 4"></path>
  <path d="M22 92 H98" stroke="#5B7A8C" stroke-width="1.2" stroke-linecap="round" stroke-dasharray="2 4"></path>
  
  <rect x="38" y="30" width="44" height="22" rx="2" fill="#8B1A2B"></rect>
  
  <path d="M38 30 L82 30 L82 52 L38 52 Z M40 30 L40 52 M44 30 L44 52 M48 30 L48 52 M52 30 L52 52 M56 30 L56 52 M60 30 L60 52 M64 30 L64 52 M68 30 L68 52 M72 30 L72 52 M76 30 L76 52 M80 30 L80 52" stroke="#FDFAF5" stroke-width="0.6" opacity="0.7"></path>
  
  <circle cx="44" cy="41" r="2" fill="#D4A017"></circle>
  <circle cx="76" cy="41" r="2" fill="#D4A017"></circle>
  
  <path d="M60 18 L62 23 L67 23 L63 26 L65 31 L60 28 L55 31 L57 26 L53 23 L58 23 Z" fill="#D4A017"></path>
</svg>