<svg xmlns="http://www.w3.org/2000/svg" viewBox="0 0 280 200" fill="none">
  
  
  <g transform="translate(20,4)">
    <circle cx="40" cy="40" r="38" fill="#FDFAF5" stroke="#8B1A2B" stroke-width="1.6"></circle>
    <path d="M8 54 L22 38 L30 46 L40 32 L50 44 L60 36 L72 54 Z" fill="#3F5B3D"></path>
    <path d="M8 60 H72" stroke="#5B7A8C" stroke-width="1" stroke-dasharray="2 3"></path>
    <rect x="24" y="18" width="32" height="14" rx="1.5" fill="#8B1A2B"></rect>
    <path d="M26 18 V32 M30 18 V32 M34 18 V32 M38 18 V32 M42 18 V32 M46 18 V32 M50 18 V32 M54 18 V32" stroke="#FDFAF5" stroke-width="0.5" opacity="0.6"></path>
    <circle cx="28" cy="25" r="1.2" fill="#D4A017"></circle>
    <circle cx="52" cy="25" r="1.2" fill="#D4A017"></circle>
    <path d="M40 8 L41.4 11.6 L45 11.6 L42.2 13.7 L43.5 17.3 L40 15.1 L36.5 17.3 L37.8 13.7 L35 11.6 L38.6 11.6 Z" fill="#D4A017"></path>
  </g>
  
  <text class="kr" x="20" y="120" font-size="26">춘천국제땅고</text>
  <text class="kr" x="20" y="148" font-size="26">페스티벌</text>
  <line x1="20" y1="160" x2="80" y2="160" stroke="#D4A017" stroke-width="1.4"></line>
  <text class="small" x="20" y="178" font-size="10">CHUNCHEON INTERNATIONAL</text>
  <text class="small" x="20" y="192" font-size="10">TANGO FESTIVAL</text>
</svg>